<svg xmlns="http://www.w3.org/2000/svg" xmlns:xlink="http://www.w3.org/1999/xlink" width="180" zoomAndPan="magnify" viewBox="0 0 135 44.999999" height="60" preserveAspectRatio="xMidYMid meet" version="1.0"><defs><g/></defs><g fill="#ffffff" fill-opacity="1"><g transform="translate(60.609636, 19.499999)"><g><path d="M 7.359375 -5.5625 C 7.359375 -6.519531 7.253906 -7.285156 7.046875 -7.859375 C 6.847656 -8.441406 6.582031 -8.875 6.25 -9.15625 C 5.925781 -9.445312 5.566406 -9.640625 5.171875 -9.734375 C 4.773438 -9.828125 4.390625 -9.875 4.015625 -9.875 L 2.71875 -9.875 L 2.71875 -1.109375 L 4.03125 -1.109375 C 4.425781 -1.109375 4.816406 -1.171875 5.203125 -1.296875 C 5.597656 -1.421875 5.957031 -1.644531 6.28125 -1.96875 C 6.613281 -2.289062 6.875 -2.738281 7.0625 -3.3125 C 7.257812 -3.894531 7.359375 -4.644531 7.359375 -5.5625 Z M 8.84375 -5.5625 C 8.84375 -4.40625 8.691406 -3.460938 8.390625 -2.734375 C 8.085938 -2.003906 7.691406 -1.441406 7.203125 -1.046875 C 6.710938 -0.648438 6.175781 -0.375 5.59375 -0.21875 C 5.007812 -0.0703125 4.429688 0 3.859375 0 L 1.34375 0 L 1.34375 -11.015625 L 3.6875 -11.015625 C 4.332031 -11.015625 4.957031 -10.941406 5.5625 -10.796875 C 6.175781 -10.648438 6.726562 -10.382812 7.21875 -10 C 7.71875 -9.613281 8.113281 -9.0625 8.40625 -8.34375 C 8.695312 -7.632812 8.84375 -6.707031 8.84375 -5.5625 Z M 8.84375 -5.5625 "/></g></g></g><g fill="#ffffff" fill-opacity="1"><g transform="translate(70.207223, 19.499999)"><g><path d="M 5.875 -8.421875 L 5.875 -1.0625 L 8.25 -1.0625 L 8.25 0 L 1.921875 0 L 1.921875 -1.0625 L 4.53125 -1.0625 L 4.53125 -7.359375 L 2.015625 -7.359375 L 2.015625 -8.421875 Z M 4.796875 -12.375 C 5.097656 -12.375 5.335938 -12.28125 5.515625 -12.09375 C 5.691406 -11.914062 5.78125 -11.695312 5.78125 -11.4375 C 5.78125 -11.164062 5.691406 -10.9375 5.515625 -10.75 C 5.335938 -10.5625 5.097656 -10.46875 4.796875 -10.46875 C 4.515625 -10.46875 4.28125 -10.5625 4.09375 -10.75 C 3.914062 -10.9375 3.828125 -11.164062 3.828125 -11.4375 C 3.828125 -11.695312 3.914062 -11.914062 4.09375 -12.09375 C 4.28125 -12.28125 4.515625 -12.375 4.796875 -12.375 Z M 4.796875 -12.375 "/></g></g></g><g fill="#ffffff" fill-opacity="1"><g transform="translate(79.80481, 19.499999)"><g><path d="M 8.453125 -9.3125 L 8.875 -8.0625 C 8.507812 -7.945312 8.125 -7.875 7.71875 -7.84375 C 7.320312 -7.820312 6.882812 -7.8125 6.40625 -7.8125 C 6.894531 -7.582031 7.257812 -7.289062 7.5 -6.9375 C 7.75 -6.582031 7.875 -6.164062 7.875 -5.6875 C 7.875 -5.132812 7.75 -4.640625 7.5 -4.203125 C 7.25 -3.773438 6.882812 -3.4375 6.40625 -3.1875 C 5.9375 -2.945312 5.367188 -2.828125 4.703125 -2.828125 C 4.421875 -2.828125 4.1875 -2.835938 4 -2.859375 C 3.8125 -2.890625 3.628906 -2.929688 3.453125 -2.984375 C 3.316406 -2.898438 3.207031 -2.78125 3.125 -2.625 C 3.050781 -2.476562 3.015625 -2.328125 3.015625 -2.171875 C 3.015625 -1.960938 3.09375 -1.789062 3.25 -1.65625 C 3.40625 -1.53125 3.703125 -1.46875 4.140625 -1.46875 L 5.65625 -1.46875 C 6.21875 -1.46875 6.722656 -1.363281 7.171875 -1.15625 C 7.628906 -0.957031 7.984375 -0.6875 8.234375 -0.34375 C 8.492188 0 8.625 0.390625 8.625 0.828125 C 8.625 1.648438 8.273438 2.28125 7.578125 2.71875 C 6.878906 3.164062 5.890625 3.390625 4.609375 3.390625 C 3.710938 3.390625 3.003906 3.296875 2.484375 3.109375 C 1.972656 2.929688 1.601562 2.65625 1.375 2.28125 C 1.15625 1.90625 1.046875 1.429688 1.046875 0.859375 L 2.265625 0.859375 C 2.265625 1.179688 2.328125 1.445312 2.453125 1.65625 C 2.578125 1.875 2.804688 2.035156 3.140625 2.140625 C 3.484375 2.242188 3.96875 2.296875 4.59375 2.296875 C 5.21875 2.296875 5.722656 2.242188 6.109375 2.140625 C 6.503906 2.035156 6.796875 1.878906 6.984375 1.671875 C 7.171875 1.472656 7.265625 1.21875 7.265625 0.90625 C 7.265625 0.507812 7.082031 0.207031 6.71875 0 C 6.363281 -0.195312 5.914062 -0.296875 5.375 -0.296875 L 3.859375 -0.296875 C 3.140625 -0.296875 2.609375 -0.453125 2.265625 -0.765625 C 1.921875 -1.085938 1.75 -1.457031 1.75 -1.875 C 1.75 -2.144531 1.828125 -2.410156 1.984375 -2.671875 C 2.140625 -2.929688 2.367188 -3.160156 2.671875 -3.359375 C 2.179688 -3.609375 1.820312 -3.921875 1.59375 -4.296875 C 1.363281 -4.679688 1.25 -5.144531 1.25 -5.6875 C 1.25 -6.25 1.390625 -6.75 1.671875 -7.1875 C 1.960938 -7.632812 2.359375 -7.984375 2.859375 -8.234375 C 3.367188 -8.484375 3.953125 -8.609375 4.609375 -8.609375 C 5.328125 -8.609375 5.90625 -8.632812 6.34375 -8.6875 C 6.789062 -8.75 7.171875 -8.832031 7.484375 -8.9375 C 7.796875 -9.050781 8.117188 -9.175781 8.453125 -9.3125 Z M 4.609375 -7.625 C 3.929688 -7.625 3.429688 -7.441406 3.109375 -7.078125 C 2.785156 -6.710938 2.625 -6.25 2.625 -5.6875 C 2.625 -5.113281 2.789062 -4.640625 3.125 -4.265625 C 3.457031 -3.898438 3.960938 -3.71875 4.640625 -3.71875 C 5.242188 -3.71875 5.703125 -3.890625 6.015625 -4.234375 C 6.328125 -4.585938 6.484375 -5.070312 6.484375 -5.6875 C 6.484375 -6.320312 6.328125 -6.800781 6.015625 -7.125 C 5.703125 -7.457031 5.234375 -7.625 4.609375 -7.625 Z M 4.609375 -7.625 "/></g></g></g><g fill="#ffffff" fill-opacity="1"><g transform="translate(89.402397, 19.499999)"><g><path d="M 5.875 -8.421875 L 5.875 -1.0625 L 8.25 -1.0625 L 8.25 0 L 1.921875 0 L 1.921875 -1.0625 L 4.53125 -1.0625 L 4.53125 -7.359375 L 2.015625 -7.359375 L 2.015625 -8.421875 Z M 4.796875 -12.375 C 5.097656 -12.375 5.335938 -12.28125 5.515625 -12.09375 C 5.691406 -11.914062 5.78125 -11.695312 5.78125 -11.4375 C 5.78125 -11.164062 5.691406 -10.9375 5.515625 -10.75 C 5.335938 -10.5625 5.097656 -10.46875 4.796875 -10.46875 C 4.515625 -10.46875 4.28125 -10.5625 4.09375 -10.75 C 3.914062 -10.9375 3.828125 -11.164062 3.828125 -11.4375 C 3.828125 -11.695312 3.914062 -11.914062 4.09375 -12.09375 C 4.28125 -12.28125 4.515625 -12.375 4.796875 -12.375 Z M 4.796875 -12.375 "/></g></g></g><g fill="#ffffff" fill-opacity="1"><g transform="translate(98.999983, 19.499999)"><g><path d="M 8.296875 -0.421875 C 8.003906 -0.234375 7.648438 -0.0859375 7.234375 0.015625 C 6.828125 0.128906 6.429688 0.1875 6.046875 0.1875 C 5.140625 0.1875 4.4375 -0.046875 3.9375 -0.515625 C 3.445312 -0.992188 3.203125 -1.609375 3.203125 -2.359375 L 3.203125 -7.390625 L 1.265625 -7.390625 L 1.265625 -8.421875 L 3.203125 -8.421875 L 3.203125 -10.328125 L 4.546875 -10.5 L 4.546875 -8.421875 L 7.46875 -8.421875 L 7.296875 -7.390625 L 4.546875 -7.390625 L 4.546875 -2.375 C 4.546875 -1.90625 4.671875 -1.546875 4.921875 -1.296875 C 5.171875 -1.054688 5.582031 -0.9375 6.15625 -0.9375 C 6.46875 -0.9375 6.757812 -0.972656 7.03125 -1.046875 C 7.300781 -1.117188 7.550781 -1.21875 7.78125 -1.34375 Z M 8.296875 -0.421875 "/></g></g></g><g fill="#ffffff" fill-opacity="1"><g transform="translate(108.59757, 19.499999)"><g><path d="M 7.640625 -1.84375 C 7.640625 -1.507812 7.691406 -1.265625 7.796875 -1.109375 C 7.910156 -0.953125 8.085938 -0.835938 8.328125 -0.765625 L 8 0.1875 C 7.632812 0.132812 7.316406 0.0195312 7.046875 -0.15625 C 6.773438 -0.34375 6.578125 -0.625 6.453125 -1 C 6.148438 -0.613281 5.769531 -0.316406 5.3125 -0.109375 C 4.863281 0.0859375 4.363281 0.1875 3.8125 0.1875 C 2.96875 0.1875 2.300781 -0.046875 1.8125 -0.515625 C 1.332031 -0.992188 1.09375 -1.628906 1.09375 -2.421875 C 1.09375 -3.285156 1.429688 -3.945312 2.109375 -4.40625 C 2.785156 -4.875 3.765625 -5.109375 5.046875 -5.109375 L 6.28125 -5.109375 L 6.28125 -5.8125 C 6.28125 -6.425781 6.101562 -6.859375 5.75 -7.109375 C 5.394531 -7.359375 4.90625 -7.484375 4.28125 -7.484375 C 4 -7.484375 3.671875 -7.445312 3.296875 -7.375 C 2.929688 -7.3125 2.53125 -7.207031 2.09375 -7.0625 L 1.734375 -8.078125 C 2.253906 -8.265625 2.738281 -8.394531 3.1875 -8.46875 C 3.644531 -8.550781 4.078125 -8.59375 4.484375 -8.59375 C 5.535156 -8.59375 6.320312 -8.347656 6.84375 -7.859375 C 7.375 -7.378906 7.640625 -6.71875 7.640625 -5.875 Z M 4.15625 -0.84375 C 4.570312 -0.84375 4.96875 -0.945312 5.34375 -1.15625 C 5.726562 -1.363281 6.039062 -1.65625 6.28125 -2.03125 L 6.28125 -4.203125 L 5.078125 -4.203125 C 4.148438 -4.203125 3.492188 -4.039062 3.109375 -3.71875 C 2.722656 -3.394531 2.53125 -2.96875 2.53125 -2.4375 C 2.53125 -1.90625 2.664062 -1.503906 2.9375 -1.234375 C 3.207031 -0.972656 3.613281 -0.84375 4.15625 -0.84375 Z M 4.15625 -0.84375 "/></g></g></g><g fill="#ffffff" fill-opacity="1"><g transform="translate(118.195157, 19.499999)"><g><path d="M 4.890625 -11.8125 L 4.890625 -2.078125 C 4.890625 -1.660156 5.015625 -1.363281 5.265625 -1.1875 C 5.523438 -1.019531 5.863281 -0.9375 6.28125 -0.9375 C 6.53125 -0.9375 6.769531 -0.960938 7 -1.015625 C 7.238281 -1.066406 7.472656 -1.140625 7.703125 -1.234375 L 8.0625 -0.25 C 7.832031 -0.132812 7.546875 -0.0351562 7.203125 0.046875 C 6.867188 0.140625 6.488281 0.1875 6.0625 0.1875 C 5.3125 0.1875 4.703125 -0.0195312 4.234375 -0.4375 C 3.773438 -0.851562 3.546875 -1.425781 3.546875 -2.15625 L 3.546875 -10.75 L 0.953125 -10.75 L 0.953125 -11.8125 Z M 4.890625 -11.8125 "/></g></g></g><g fill="#f54900" fill-opacity="1"><g transform="translate(66.234635, 35.249998)"><g><path d="M 2.171875 0 L 2.171875 -11.015625 L 3.5625 -11.015625 L 3.5625 -1.234375 L 8.578125 -1.234375 L 8.421875 0 Z M 2.171875 0 "/></g></g></g><g fill="#f54900" fill-opacity="1"><g transform="translate(80.216213, 35.249998)"><g><path d="M 7.640625 -1.84375 C 7.640625 -1.507812 7.691406 -1.265625 7.796875 -1.109375 C 7.910156 -0.953125 8.085938 -0.835938 8.328125 -0.765625 L 8 0.1875 C 7.632812 0.132812 7.316406 0.0195312 7.046875 -0.15625 C 6.773438 -0.34375 6.578125 -0.625 6.453125 -1 C 6.148438 -0.613281 5.769531 -0.316406 5.3125 -0.109375 C 4.863281 0.0859375 4.363281 0.1875 3.8125 0.1875 C 2.96875 0.1875 2.300781 -0.046875 1.8125 -0.515625 C 1.332031 -0.992188 1.09375 -1.628906 1.09375 -2.421875 C 1.09375 -3.285156 1.429688 -3.945312 2.109375 -4.40625 C 2.785156 -4.875 3.765625 -5.109375 5.046875 -5.109375 L 6.28125 -5.109375 L 6.28125 -5.8125 C 6.28125 -6.425781 6.101562 -6.859375 5.75 -7.109375 C 5.394531 -7.359375 4.90625 -7.484375 4.28125 -7.484375 C 4 -7.484375 3.671875 -7.445312 3.296875 -7.375 C 2.929688 -7.3125 2.53125 -7.207031 2.09375 -7.0625 L 1.734375 -8.078125 C 2.253906 -8.265625 2.738281 -8.394531 3.1875 -8.46875 C 3.644531 -8.550781 4.078125 -8.59375 4.484375 -8.59375 C 5.535156 -8.59375 6.320312 -8.347656 6.84375 -7.859375 C 7.375 -7.378906 7.640625 -6.71875 7.640625 -5.875 Z M 4.15625 -0.84375 C 4.570312 -0.84375 4.96875 -0.945312 5.34375 -1.15625 C 5.726562 -1.363281 6.039062 -1.65625 6.28125 -2.03125 L 6.28125 -4.203125 L 5.078125 -4.203125 C 4.148438 -4.203125 3.492188 -4.039062 3.109375 -3.71875 C 2.722656 -3.394531 2.53125 -2.96875 2.53125 -2.4375 C 2.53125 -1.90625 2.664062 -1.503906 2.9375 -1.234375 C 3.207031 -0.972656 3.613281 -0.84375 4.15625 -0.84375 Z M 4.15625 -0.84375 "/></g></g></g><g fill="#f54900" fill-opacity="1"><g transform="translate(94.197791, 35.249998)"><g><path d="M 2.953125 -7.328125 C 3.265625 -7.734375 3.617188 -8.046875 4.015625 -8.265625 C 4.421875 -8.484375 4.867188 -8.59375 5.359375 -8.59375 C 6.109375 -8.59375 6.710938 -8.410156 7.171875 -8.046875 C 7.640625 -7.691406 7.976562 -7.179688 8.1875 -6.515625 C 8.40625 -5.859375 8.515625 -5.09375 8.515625 -4.21875 C 8.515625 -3.363281 8.382812 -2.601562 8.125 -1.9375 C 7.875 -1.28125 7.5 -0.757812 7 -0.375 C 6.507812 0 5.898438 0.1875 5.171875 0.1875 C 4.203125 0.1875 3.4375 -0.164062 2.875 -0.875 L 2.78125 0 L 1.609375 0 L 1.609375 -11.8125 L 2.953125 -11.984375 Z M 4.859375 -0.90625 C 5.554688 -0.90625 6.09375 -1.175781 6.46875 -1.71875 C 6.851562 -2.257812 7.046875 -3.09375 7.046875 -4.21875 C 7.046875 -4.957031 6.96875 -5.570312 6.8125 -6.0625 C 6.664062 -6.550781 6.445312 -6.914062 6.15625 -7.15625 C 5.863281 -7.394531 5.5 -7.515625 5.0625 -7.515625 C 4.59375 -7.515625 4.179688 -7.375 3.828125 -7.09375 C 3.472656 -6.820312 3.179688 -6.515625 2.953125 -6.171875 L 2.953125 -1.984375 C 3.171875 -1.660156 3.445312 -1.398438 3.78125 -1.203125 C 4.113281 -1.003906 4.472656 -0.90625 4.859375 -0.90625 Z M 4.859375 -0.90625 "/></g></g></g><g fill="#f54900" fill-opacity="1"><g transform="translate(108.179369, 35.249998)"><g><path d="M 4.46875 -0.921875 C 5.113281 -0.921875 5.625 -1.039062 6 -1.28125 C 6.375 -1.53125 6.5625 -1.859375 6.5625 -2.265625 C 6.5625 -2.515625 6.515625 -2.734375 6.421875 -2.921875 C 6.328125 -3.109375 6.132812 -3.273438 5.84375 -3.421875 C 5.5625 -3.578125 5.125 -3.726562 4.53125 -3.875 C 3.945312 -4.019531 3.441406 -4.1875 3.015625 -4.375 C 2.585938 -4.5625 2.253906 -4.804688 2.015625 -5.109375 C 1.773438 -5.421875 1.65625 -5.816406 1.65625 -6.296875 C 1.65625 -6.773438 1.789062 -7.1875 2.0625 -7.53125 C 2.332031 -7.875 2.707031 -8.132812 3.1875 -8.3125 C 3.664062 -8.5 4.222656 -8.59375 4.859375 -8.59375 C 5.535156 -8.59375 6.125 -8.503906 6.625 -8.328125 C 7.132812 -8.148438 7.5625 -7.929688 7.90625 -7.671875 L 7.3125 -6.765625 C 7 -6.984375 6.648438 -7.160156 6.265625 -7.296875 C 5.878906 -7.441406 5.414062 -7.515625 4.875 -7.515625 C 4.207031 -7.515625 3.734375 -7.410156 3.453125 -7.203125 C 3.179688 -6.992188 3.046875 -6.726562 3.046875 -6.40625 C 3.046875 -6.164062 3.113281 -5.960938 3.25 -5.796875 C 3.382812 -5.628906 3.613281 -5.476562 3.9375 -5.34375 C 4.269531 -5.21875 4.71875 -5.078125 5.28125 -4.921875 C 5.832031 -4.785156 6.3125 -4.613281 6.71875 -4.40625 C 7.125 -4.207031 7.441406 -3.941406 7.671875 -3.609375 C 7.910156 -3.273438 8.03125 -2.847656 8.03125 -2.328125 C 8.03125 -1.734375 7.859375 -1.25 7.515625 -0.875 C 7.171875 -0.5 6.726562 -0.226562 6.1875 -0.0625 C 5.644531 0.101562 5.070312 0.1875 4.46875 0.1875 C 3.707031 0.1875 3.054688 0.078125 2.515625 -0.140625 C 1.984375 -0.367188 1.535156 -0.640625 1.171875 -0.953125 L 1.9375 -1.84375 C 2.269531 -1.570312 2.648438 -1.347656 3.078125 -1.171875 C 3.515625 -1.003906 3.976562 -0.921875 4.46875 -0.921875 Z M 4.46875 -0.921875 "/></g></g></g><g fill="#f54900" fill-opacity="1"><g transform="translate(7.708914, 30.95)"><g><path d="M 1.125 -9.375 C 1.570312 -9.375 1.953125 -9.453125 2.265625 -9.609375 C 2.585938 -9.773438 2.851562 -9.984375 3.0625 -10.234375 C 3.28125 -10.484375 3.441406 -10.769531 3.546875 -11.09375 C 3.648438 -11.425781 3.703125 -11.757812 3.703125 -12.09375 L 3.703125 -17.140625 C 3.703125 -17.898438 3.785156 -18.578125 3.953125 -19.171875 C 4.117188 -19.773438 4.40625 -20.273438 4.8125 -20.671875 C 5.226562 -21.078125 5.773438 -21.382812 6.453125 -21.59375 C 7.128906 -21.8125 7.972656 -21.921875 8.984375 -21.921875 L 9.09375 -21.921875 L 9.09375 -19.875 C 8.03125 -19.875 7.269531 -19.679688 6.8125 -19.296875 C 6.351562 -18.921875 6.125 -18.191406 6.125 -17.109375 L 6.125 -12.796875 C 6.125 -11.566406 5.960938 -10.613281 5.640625 -9.9375 C 5.316406 -9.269531 4.851562 -8.75 4.25 -8.375 C 4.851562 -8 5.316406 -7.472656 5.640625 -6.796875 C 5.960938 -6.128906 6.125 -5.179688 6.125 -3.953125 L 6.125 0.359375 C 6.125 1.441406 6.351562 2.175781 6.8125 2.5625 C 7.269531 2.945312 8.03125 3.140625 9.09375 3.140625 L 9.09375 5.1875 L 8.984375 5.1875 C 7.972656 5.1875 7.128906 5.082031 6.453125 4.875 C 5.773438 4.664062 5.226562 4.351562 4.8125 3.9375 C 4.40625 3.53125 4.117188 3.03125 3.953125 2.4375 C 3.785156 1.84375 3.703125 1.160156 3.703125 0.390625 L 3.703125 -4.640625 C 3.703125 -4.984375 3.648438 -5.316406 3.546875 -5.640625 C 3.441406 -5.960938 3.28125 -6.25 3.0625 -6.5 C 2.851562 -6.757812 2.585938 -6.96875 2.265625 -7.125 C 1.953125 -7.28125 1.570312 -7.359375 1.125 -7.359375 Z M 1.125 -9.375 "/></g></g></g><g fill="#f54900" fill-opacity="1"><g transform="translate(16.695661, 30.95)"><g><path d="M 11.734375 -6.25 C 11.734375 -5.3125 11.632812 -4.441406 11.4375 -3.640625 C 11.238281 -2.835938 10.890625 -2.128906 10.390625 -1.515625 C 9.898438 -0.910156 9.238281 -0.4375 8.40625 -0.09375 C 7.582031 0.25 6.546875 0.421875 5.296875 0.421875 C 4.660156 0.421875 4.078125 0.367188 3.546875 0.265625 C 3.015625 0.160156 2.53125 0.03125 2.09375 -0.125 C 1.664062 -0.28125 1.289062 -0.445312 0.96875 -0.625 C 0.65625 -0.800781 0.40625 -0.972656 0.21875 -1.140625 L 1.28125 -3.296875 C 1.675781 -3.023438 2.1875 -2.734375 2.8125 -2.421875 C 3.4375 -2.109375 4.21875 -1.953125 5.15625 -1.953125 C 6.5 -1.953125 7.476562 -2.289062 8.09375 -2.96875 C 8.707031 -3.65625 9.015625 -4.832031 9.015625 -6.5 L 9.015625 -19.40625 L 11.734375 -19.40625 Z M 11.734375 -6.25 "/></g></g></g><g fill="#f54900" fill-opacity="1"><g transform="translate(30.217793, 30.95)"><g><path d="M 14.734375 -17.25 C 14.296875 -16.757812 13.789062 -16.171875 13.21875 -15.484375 C 12.65625 -14.804688 12.054688 -14.050781 11.421875 -13.21875 C 10.785156 -12.394531 10.128906 -11.519531 9.453125 -10.59375 C 8.785156 -9.675781 8.128906 -8.742188 7.484375 -7.796875 C 6.847656 -6.859375 6.238281 -5.921875 5.65625 -4.984375 C 5.070312 -4.046875 4.550781 -3.160156 4.09375 -2.328125 L 15.015625 -2.328125 L 15.015625 0 L 0.921875 0 L 0.921875 -1.8125 C 1.316406 -2.5625 1.78125 -3.382812 2.3125 -4.28125 C 2.84375 -5.175781 3.410156 -6.085938 4.015625 -7.015625 C 4.617188 -7.953125 5.25 -8.894531 5.90625 -9.84375 C 6.5625 -10.800781 7.207031 -11.71875 7.84375 -12.59375 C 8.488281 -13.476562 9.113281 -14.300781 9.71875 -15.0625 C 10.332031 -15.832031 10.890625 -16.503906 11.390625 -17.078125 L 1.421875 -17.078125 L 1.421875 -19.40625 L 14.734375 -19.40625 Z M 14.734375 -17.25 "/></g></g></g><g fill="#f54900" fill-opacity="1"><g transform="translate(45.839641, 30.95)"><g><path d="M 8.203125 -7.359375 C 7.753906 -7.359375 7.367188 -7.28125 7.046875 -7.125 C 6.734375 -6.96875 6.46875 -6.757812 6.25 -6.5 C 6.039062 -6.25 5.882812 -5.960938 5.78125 -5.640625 C 5.675781 -5.316406 5.625 -4.984375 5.625 -4.640625 L 5.625 0.390625 C 5.625 1.160156 5.539062 1.84375 5.375 2.4375 C 5.207031 3.03125 4.914062 3.53125 4.5 3.9375 C 4.09375 4.351562 3.546875 4.664062 2.859375 4.875 C 2.179688 5.082031 1.34375 5.1875 0.34375 5.1875 L 0.21875 5.1875 L 0.21875 3.140625 C 1.28125 3.140625 2.039062 2.945312 2.5 2.5625 C 2.957031 2.175781 3.1875 1.441406 3.1875 0.359375 L 3.1875 -3.953125 C 3.1875 -5.179688 3.347656 -6.128906 3.671875 -6.796875 C 4.003906 -7.472656 4.46875 -8 5.0625 -8.375 C 4.46875 -8.75 4.003906 -9.269531 3.671875 -9.9375 C 3.347656 -10.613281 3.1875 -11.566406 3.1875 -12.796875 L 3.1875 -17.109375 C 3.1875 -18.191406 2.957031 -18.921875 2.5 -19.296875 C 2.039062 -19.679688 1.28125 -19.875 0.21875 -19.875 L 0.21875 -21.921875 L 0.34375 -21.921875 C 1.34375 -21.921875 2.179688 -21.8125 2.859375 -21.59375 C 3.546875 -21.382812 4.09375 -21.078125 4.5 -20.671875 C 4.914062 -20.273438 5.207031 -19.773438 5.375 -19.171875 C 5.539062 -18.578125 5.625 -17.898438 5.625 -17.140625 L 5.625 -12.09375 C 5.625 -11.757812 5.675781 -11.425781 5.78125 -11.09375 C 5.882812 -10.769531 6.039062 -10.484375 6.25 -10.234375 C 6.46875 -9.984375 6.734375 -9.773438 7.046875 -9.609375 C 7.367188 -9.453125 7.753906 -9.375 8.203125 -9.375 Z M 8.203125 -7.359375 "/></g></g></g></svg>