<svg xmlns="http://www.w3.org/2000/svg" xmlns:xlink="http://www.w3.org/1999/xlink" width="512" zoomAndPan="magnify" viewBox="0 0 384 383.999986" height="512" preserveAspectRatio="xMidYMid meet" version="1.0"><defs><g/><clipPath id="3925694db1"><rect x="0" width="381" y="0" height="243"/></clipPath></defs><g transform="matrix(1, 0, 0, 1, 0, 65)"><g clip-path="url(#3925694db1)"><g fill="#f54900" fill-opacity="1"><g transform="translate(9.375986, 196.237988)"><g><path d="M 8.609375 -72.140625 C 12.054688 -72.140625 15 -72.75 17.4375 -73.96875 C 19.882812 -75.1875 21.929688 -76.765625 23.578125 -78.703125 C 25.234375 -80.640625 26.453125 -82.863281 27.234375 -85.375 C 28.023438 -87.882812 28.421875 -90.429688 28.421875 -93.015625 L 28.421875 -131.78125 C 28.421875 -137.664062 29.066406 -142.90625 30.359375 -147.5 C 31.648438 -152.09375 33.875 -155.929688 37.03125 -159.015625 C 40.195312 -162.109375 44.398438 -164.476562 49.640625 -166.125 C 54.878906 -167.78125 61.375 -168.609375 69.125 -168.609375 L 69.984375 -168.609375 L 69.984375 -152.890625 C 61.796875 -152.890625 55.941406 -151.414062 52.421875 -148.46875 C 48.910156 -145.519531 47.15625 -139.882812 47.15625 -131.5625 L 47.15625 -98.40625 C 47.15625 -88.925781 45.898438 -81.601562 43.390625 -76.4375 C 40.878906 -71.269531 37.328125 -67.253906 32.734375 -64.390625 C 37.328125 -61.515625 40.878906 -57.492188 43.390625 -52.328125 C 45.898438 -47.160156 47.15625 -39.835938 47.15625 -30.359375 L 47.15625 2.796875 C 47.15625 11.117188 48.910156 16.75 52.421875 19.6875 C 55.941406 22.632812 61.796875 24.109375 69.984375 24.109375 L 69.984375 39.828125 L 69.125 39.828125 C 61.375 39.828125 54.878906 39.035156 49.640625 37.453125 C 44.398438 35.878906 40.195312 33.515625 37.03125 30.359375 C 33.875 27.203125 31.648438 23.328125 30.359375 18.734375 C 29.066406 14.140625 28.421875 8.898438 28.421875 3.015625 L 28.421875 -35.75 C 28.421875 -38.332031 28.023438 -40.878906 27.234375 -43.390625 C 26.453125 -45.898438 25.234375 -48.125 23.578125 -50.0625 C 21.929688 -52 19.882812 -53.578125 17.4375 -54.796875 C 15 -56.015625 12.054688 -56.625 8.609375 -56.625 Z M 8.609375 -72.140625 "/></g></g></g><g fill="#f54900" fill-opacity="1"><g transform="translate(78.482627, 196.237988)"><g><path d="M 90.21875 -48.015625 C 90.21875 -40.835938 89.460938 -34.160156 87.953125 -27.984375 C 86.453125 -21.816406 83.796875 -16.398438 79.984375 -11.734375 C 76.179688 -7.066406 71.085938 -3.40625 64.703125 -0.75 C 58.316406 1.90625 50.316406 3.234375 40.703125 3.234375 C 35.816406 3.234375 31.328125 2.835938 27.234375 2.046875 C 23.148438 1.253906 19.457031 0.25 16.15625 -0.96875 C 12.851562 -2.1875 9.976562 -3.476562 7.53125 -4.84375 C 5.09375 -6.207031 3.15625 -7.535156 1.71875 -8.828125 L 9.90625 -25.40625 C 12.914062 -23.25 16.828125 -20.988281 21.640625 -18.625 C 26.453125 -16.257812 32.445312 -15.078125 39.625 -15.078125 C 49.957031 -15.078125 57.488281 -17.695312 62.21875 -22.9375 C 66.957031 -28.175781 69.328125 -37.179688 69.328125 -49.953125 L 69.328125 -149.21875 L 90.21875 -149.21875 Z M 90.21875 -48.015625 "/></g></g></g><g fill="#f54900" fill-opacity="1"><g transform="translate(182.465522, 196.237988)"><g><path d="M 113.265625 -132.640625 C 109.960938 -128.910156 106.117188 -124.425781 101.734375 -119.1875 C 97.359375 -113.945312 92.726562 -108.128906 87.84375 -101.734375 C 82.96875 -95.347656 77.945312 -88.601562 72.78125 -81.5 C 67.613281 -74.394531 62.550781 -67.21875 57.59375 -59.96875 C 52.644531 -52.71875 47.945312 -45.503906 43.5 -38.328125 C 39.050781 -31.148438 35.03125 -24.332031 31.4375 -17.875 L 115.421875 -17.875 L 115.421875 0 L 7.109375 0 L 7.109375 -14 C 10.117188 -19.738281 13.671875 -26.050781 17.765625 -32.9375 C 21.859375 -39.832031 26.234375 -46.867188 30.890625 -54.046875 C 35.554688 -61.222656 40.398438 -68.472656 45.421875 -75.796875 C 50.453125 -83.117188 55.441406 -90.148438 60.390625 -96.890625 C 65.347656 -103.640625 70.160156 -109.957031 74.828125 -115.84375 C 79.492188 -121.726562 83.765625 -126.894531 87.640625 -131.34375 L 10.984375 -131.34375 L 10.984375 -149.21875 L 113.265625 -149.21875 Z M 113.265625 -132.640625 "/></g></g></g><g fill="#f54900" fill-opacity="1"><g transform="translate(302.5949, 196.237988)"><g><path d="M 63.09375 -56.625 C 59.644531 -56.625 56.703125 -56.015625 54.265625 -54.796875 C 51.828125 -53.578125 49.78125 -52 48.125 -50.0625 C 46.476562 -48.125 45.257812 -45.898438 44.46875 -43.390625 C 43.675781 -40.878906 43.28125 -38.332031 43.28125 -35.75 L 43.28125 3.015625 C 43.28125 8.898438 42.632812 14.140625 41.34375 18.734375 C 40.050781 23.328125 37.828125 27.203125 34.671875 30.359375 C 31.515625 33.515625 27.316406 35.878906 22.078125 37.453125 C 16.835938 39.035156 10.335938 39.828125 2.578125 39.828125 L 1.71875 39.828125 L 1.71875 24.109375 C 9.90625 24.109375 15.753906 22.632812 19.265625 19.6875 C 22.785156 16.75 24.546875 11.117188 24.546875 2.796875 L 24.546875 -30.359375 C 24.546875 -39.835938 25.800781 -47.160156 28.3125 -52.328125 C 30.820312 -57.492188 34.375 -61.515625 38.96875 -64.390625 C 34.375 -67.253906 30.820312 -71.269531 28.3125 -76.4375 C 25.800781 -81.601562 24.546875 -88.925781 24.546875 -98.40625 L 24.546875 -131.5625 C 24.546875 -139.882812 22.785156 -145.519531 19.265625 -148.46875 C 15.753906 -151.414062 9.90625 -152.890625 1.71875 -152.890625 L 1.71875 -168.609375 L 2.578125 -168.609375 C 10.335938 -168.609375 16.835938 -167.78125 22.078125 -166.125 C 27.316406 -164.476562 31.515625 -162.109375 34.671875 -159.015625 C 37.828125 -155.929688 40.050781 -152.09375 41.34375 -147.5 C 42.632812 -142.90625 43.28125 -137.664062 43.28125 -131.78125 L 43.28125 -93.015625 C 43.28125 -90.429688 43.675781 -87.882812 44.46875 -85.375 C 45.257812 -82.863281 46.476562 -80.640625 48.125 -78.703125 C 49.78125 -76.765625 51.828125 -75.1875 54.265625 -73.96875 C 56.703125 -72.75 59.644531 -72.140625 63.09375 -72.140625 Z M 63.09375 -56.625 "/></g></g></g></g></g></svg>